# xmcd CD database file
#
# Track frame offsets:
#	150
#	25322
#	42997
#
# Disc length: 904 seconds
#
# Revision: 0
# Processed by: cddbd v1.5.1PL0 Copyright (c) Steve Scherf et al.
# Submitted via: CDex 1.51
#
DISCID=1e038603
DTITLE=白井貴子 - 名前のない愛でもいい
DYEAR=1994
DGENRE=JPop
TTITLE0=名前のない愛でもいい
TTITLE1=Answer
TTITLE2=名前のない愛でもいい（オリジナル・カラオケ）
EXTD=YEAR: 1994
EXTT0=
EXTT1=
EXTT2=
PLAYORDER=
